<mxfile host="app.diagrams.net" modified="2023-01-11T03:42:12.850Z" agent="5.0 (Windows)" etag="Eb8sKahZyuSmJh39aPdq" version="20.8.3" type="github">
  <diagram name="Page-1" id="7e0a89b8-554c-2b80-1dc8-d5c74ca68de4">
    <mxGraphModel dx="1434" dy="746" grid="1" gridSize="10" guides="1" tooltips="1" connect="1" arrows="1" fold="1" page="1" pageScale="1" pageWidth="1100" pageHeight="850" background="none" math="0" shadow="0">
      <root>
        <mxCell id="0" />
        <mxCell id="1" parent="0" />
        <mxCell id="1cb643a89b7d889d-12" style="edgeStyle=orthogonalEdgeStyle;rounded=0;html=1;exitPerimeter=0;entryX=0;entryY=0.5;entryPerimeter=0;labelBackgroundColor=none;startArrow=none;startFill=0;startSize=5;endArrow=none;endFill=0;endSize=5;jettySize=auto;orthogonalLoop=1;strokeWidth=1;fontFamily=Verdana;fontSize=12;" parent="1" source="VuVPS5KJBOoQBnHny8Ev-2" target="1cb643a89b7d889d-2" edge="1">
          <mxGeometry relative="1" as="geometry" />
        </mxCell>
        <mxCell id="1cb643a89b7d889d-1" value="40&amp;nbsp;&lt;b&gt;Ω&lt;/b&gt;" style="verticalLabelPosition=bottom;shadow=0;dashed=0;align=center;html=1;verticalAlign=top;strokeWidth=1;shape=mxgraph.electrical.resistors.resistor_2;rounded=1;comic=0;labelBackgroundColor=none;fontFamily=Verdana;fontSize=12" parent="1" vertex="1">
          <mxGeometry x="322" y="120" width="100" height="20" as="geometry" />
        </mxCell>
        <mxCell id="1cb643a89b7d889d-15" style="edgeStyle=orthogonalEdgeStyle;rounded=0;html=1;exitX=1;exitY=0.5;exitPerimeter=0;labelBackgroundColor=none;startArrow=none;startFill=0;startSize=5;endArrow=none;endFill=0;endSize=5;jettySize=auto;orthogonalLoop=1;strokeWidth=1;fontFamily=Verdana;fontSize=12;" parent="1" source="1cb643a89b7d889d-2" target="VuVPS5KJBOoQBnHny8Ev-1" edge="1">
          <mxGeometry relative="1" as="geometry">
            <mxPoint x="612" y="170" as="targetPoint" />
            <Array as="points">
              <mxPoint x="582" y="130" />
              <mxPoint x="582" y="170" />
            </Array>
          </mxGeometry>
        </mxCell>
        <mxCell id="1cb643a89b7d889d-2" value="20&amp;nbsp;&lt;b&gt;Ω&lt;/b&gt;" style="verticalLabelPosition=bottom;shadow=0;dashed=0;align=center;html=1;verticalAlign=top;strokeWidth=1;shape=mxgraph.electrical.resistors.resistor_2;rounded=1;comic=0;labelBackgroundColor=none;fontFamily=Verdana;fontSize=12" parent="1" vertex="1">
          <mxGeometry x="462" y="120" width="100" height="20" as="geometry" />
        </mxCell>
        <mxCell id="1cb643a89b7d889d-3" value="70&amp;nbsp;&lt;b&gt;Ω&lt;/b&gt;" style="verticalLabelPosition=bottom;shadow=0;dashed=0;align=center;html=1;verticalAlign=top;strokeWidth=1;shape=mxgraph.electrical.resistors.resistor_2;rounded=1;comic=0;labelBackgroundColor=none;fontFamily=Verdana;fontSize=12" parent="1" vertex="1">
          <mxGeometry x="322" y="210" width="100" height="20" as="geometry" />
        </mxCell>
        <mxCell id="1cb643a89b7d889d-14" style="edgeStyle=orthogonalEdgeStyle;rounded=0;html=1;exitX=1;exitY=0.5;exitPerimeter=0;labelBackgroundColor=none;startArrow=none;startFill=0;startSize=5;endArrow=none;endFill=0;endSize=5;jettySize=auto;orthogonalLoop=1;strokeWidth=1;fontFamily=Verdana;fontSize=12;" parent="1" source="1cb643a89b7d889d-4" target="VuVPS5KJBOoQBnHny8Ev-1" edge="1">
          <mxGeometry relative="1" as="geometry">
            <mxPoint x="670" y="180" as="targetPoint" />
            <Array as="points">
              <mxPoint x="582" y="220" />
              <mxPoint x="582" y="170" />
            </Array>
          </mxGeometry>
        </mxCell>
        <mxCell id="1cb643a89b7d889d-4" value="20&amp;nbsp;&lt;b&gt;Ω&lt;/b&gt;" style="verticalLabelPosition=bottom;shadow=0;dashed=0;align=center;html=1;verticalAlign=top;strokeWidth=1;shape=mxgraph.electrical.resistors.resistor_2;rounded=1;comic=0;labelBackgroundColor=none;fontFamily=Verdana;fontSize=12" parent="1" vertex="1">
          <mxGeometry x="462" y="210" width="100" height="20" as="geometry" />
        </mxCell>
        <mxCell id="1cb643a89b7d889d-10" style="edgeStyle=orthogonalEdgeStyle;rounded=0;html=1;entryX=0;entryY=0.5;entryPerimeter=0;labelBackgroundColor=none;startArrow=none;startFill=0;startSize=5;endArrow=none;endFill=0;endSize=5;jettySize=auto;orthogonalLoop=1;strokeWidth=1;fontFamily=Verdana;fontSize=12" parent="1" source="VuVPS5KJBOoQBnHny8Ev-4" target="1cb643a89b7d889d-1" edge="1">
          <mxGeometry relative="1" as="geometry">
            <Array as="points">
              <mxPoint x="290" y="170" />
              <mxPoint x="290" y="130" />
            </Array>
          </mxGeometry>
        </mxCell>
        <mxCell id="1cb643a89b7d889d-11" style="edgeStyle=orthogonalEdgeStyle;rounded=0;html=1;entryX=0;entryY=0.5;entryPerimeter=0;labelBackgroundColor=none;startArrow=none;startFill=0;startSize=5;endArrow=none;endFill=0;endSize=5;jettySize=auto;orthogonalLoop=1;strokeWidth=1;fontFamily=Verdana;fontSize=12;" parent="1" source="VuVPS5KJBOoQBnHny8Ev-4" target="1cb643a89b7d889d-3" edge="1">
          <mxGeometry relative="1" as="geometry">
            <Array as="points">
              <mxPoint x="290" y="170" />
              <mxPoint x="290" y="220" />
            </Array>
          </mxGeometry>
        </mxCell>
        <mxCell id="1cb643a89b7d889d-5" value="50&amp;nbsp;&lt;b&gt;Ω&lt;/b&gt;" style="verticalLabelPosition=bottom;shadow=0;dashed=0;align=center;html=1;verticalAlign=top;strokeWidth=1;shape=mxgraph.electrical.resistors.resistor_2;rounded=1;comic=0;labelBackgroundColor=none;fontFamily=Verdana;fontSize=12;" parent="1" vertex="1">
          <mxGeometry x="162" y="160" width="100" height="20" as="geometry" />
        </mxCell>
        <mxCell id="1cb643a89b7d889d-9" style="edgeStyle=orthogonalEdgeStyle;rounded=0;html=1;exitX=0;exitY=0.5;exitPerimeter=0;labelBackgroundColor=none;startArrow=none;startFill=0;startSize=5;endArrow=none;endFill=0;endSize=5;jettySize=auto;orthogonalLoop=1;strokeWidth=1;fontFamily=Verdana;fontSize=12" parent="1" source="1cb643a89b7d889d-6" target="VuVPS5KJBOoQBnHny8Ev-5" edge="1">
          <mxGeometry relative="1" as="geometry">
            <Array as="points">
              <mxPoint x="122" y="300" />
            </Array>
          </mxGeometry>
        </mxCell>
        <mxCell id="1cb643a89b7d889d-6" value="20&amp;nbsp;&lt;b&gt;Ω&lt;/b&gt;" style="verticalLabelPosition=bottom;shadow=0;dashed=0;align=center;html=1;verticalAlign=top;strokeWidth=1;shape=mxgraph.electrical.resistors.resistor_2;rounded=1;comic=0;labelBackgroundColor=none;fontFamily=Verdana;fontSize=12" parent="1" vertex="1">
          <mxGeometry x="162" y="290" width="100" height="20" as="geometry" />
        </mxCell>
        <mxCell id="1cb643a89b7d889d-8" style="edgeStyle=orthogonalEdgeStyle;rounded=0;html=1;exitX=1;exitY=0.5;exitPerimeter=0;entryX=1;entryY=0.5;entryPerimeter=0;labelBackgroundColor=none;startArrow=none;startFill=0;startSize=5;endArrow=none;endFill=0;endSize=5;jettySize=auto;orthogonalLoop=1;strokeWidth=1;fontFamily=Verdana;fontSize=12" parent="1" source="1cb643a89b7d889d-7" target="1cb643a89b7d889d-6" edge="1">
          <mxGeometry relative="1" as="geometry" />
        </mxCell>
        <mxCell id="1cb643a89b7d889d-16" style="edgeStyle=orthogonalEdgeStyle;rounded=0;html=1;exitX=0;exitY=0.5;exitPerimeter=0;labelBackgroundColor=none;startArrow=none;startFill=0;startSize=5;endArrow=none;endFill=0;endSize=5;jettySize=auto;orthogonalLoop=1;strokeWidth=1;fontFamily=Verdana;fontSize=12" parent="1" source="1cb643a89b7d889d-7" target="VuVPS5KJBOoQBnHny8Ev-1" edge="1">
          <mxGeometry relative="1" as="geometry">
            <mxPoint x="612" y="170" as="targetPoint" />
            <Array as="points">
              <mxPoint x="632" y="300" />
              <mxPoint x="632" y="170" />
            </Array>
          </mxGeometry>
        </mxCell>
        <mxCell id="psXuE5Bi8fvCq3IU7CZu-8" style="edgeStyle=orthogonalEdgeStyle;rounded=0;orthogonalLoop=1;jettySize=auto;html=1;" edge="1" parent="1" source="1cb643a89b7d889d-7">
          <mxGeometry relative="1" as="geometry">
            <mxPoint x="710" y="310" as="targetPoint" />
            <Array as="points">
              <mxPoint x="710" y="300" />
            </Array>
          </mxGeometry>
        </mxCell>
        <mxCell id="1cb643a89b7d889d-7" value="220 V" style="verticalLabelPosition=bottom;shadow=0;dashed=0;align=center;fillColor=default;html=1;verticalAlign=top;strokeWidth=1;shape=mxgraph.electrical.miscellaneous.monocell_battery;rounded=1;comic=0;labelBackgroundColor=none;fontFamily=Verdana;fontSize=12;flipH=1;" parent="1" vertex="1">
          <mxGeometry x="442" y="270" width="100" height="60" as="geometry" />
        </mxCell>
        <mxCell id="VuVPS5KJBOoQBnHny8Ev-1" value="B" style="shape=waypoint;sketch=0;fillStyle=solid;size=6;pointerEvents=1;points=[];fillColor=none;resizable=0;rotatable=0;perimeter=centerPerimeter;snapToPoint=1;verticalAlign=top;spacingBottom=0;spacingTop=-5;fontFamily=Verdana;fontSize=12;" parent="1" vertex="1">
          <mxGeometry x="592" y="150" width="40" height="40" as="geometry" />
        </mxCell>
        <mxCell id="VuVPS5KJBOoQBnHny8Ev-2" value="C" style="shape=waypoint;sketch=0;fillStyle=solid;size=6;pointerEvents=1;points=[];fillColor=none;resizable=0;rotatable=0;perimeter=centerPerimeter;snapToPoint=1;verticalAlign=top;spacingBottom=0;spacingTop=-5;fontFamily=Verdana;fontSize=12;" parent="1" vertex="1">
          <mxGeometry x="423" y="110" width="40" height="40" as="geometry" />
        </mxCell>
        <mxCell id="VuVPS5KJBOoQBnHny8Ev-3" value="" style="edgeStyle=orthogonalEdgeStyle;rounded=0;html=1;exitX=1;exitY=0.5;exitPerimeter=0;entryPerimeter=0;labelBackgroundColor=none;startArrow=none;startFill=0;startSize=5;endArrow=none;endFill=0;endSize=5;jettySize=auto;orthogonalLoop=1;strokeWidth=1;fontFamily=Verdana;fontSize=12;" parent="1" source="1cb643a89b7d889d-1" target="VuVPS5KJBOoQBnHny8Ev-2" edge="1">
          <mxGeometry relative="1" as="geometry">
            <mxPoint x="422" y="130.00000000000006" as="sourcePoint" />
            <mxPoint x="462" y="130.00000000000006" as="targetPoint" />
          </mxGeometry>
        </mxCell>
        <mxCell id="VuVPS5KJBOoQBnHny8Ev-4" value="A" style="shape=waypoint;sketch=0;fillStyle=solid;size=6;pointerEvents=1;points=[];fillColor=none;resizable=0;rotatable=0;perimeter=centerPerimeter;snapToPoint=1;verticalAlign=top;spacingBottom=0;spacingTop=-5;fontFamily=Verdana;fontSize=12;" parent="1" vertex="1">
          <mxGeometry x="242" y="150" width="40" height="40" as="geometry" />
        </mxCell>
        <mxCell id="VuVPS5KJBOoQBnHny8Ev-5" value="E" style="shape=waypoint;sketch=0;fillStyle=solid;size=6;pointerEvents=1;points=[];fillColor=none;resizable=0;rotatable=0;perimeter=centerPerimeter;snapToPoint=1;verticalAlign=middle;spacingBottom=0;spacingTop=0;fontFamily=Verdana;fontSize=12;labelPosition=center;verticalLabelPosition=middle;align=left;spacingRight=0;spacingLeft=6;" parent="1" vertex="1">
          <mxGeometry x="102" y="214" width="40" height="40" as="geometry" />
        </mxCell>
        <mxCell id="VuVPS5KJBOoQBnHny8Ev-7" style="edgeStyle=orthogonalEdgeStyle;rounded=0;html=1;labelBackgroundColor=none;startArrow=none;startFill=0;startSize=5;endArrow=none;endFill=0;endSize=5;jettySize=auto;orthogonalLoop=1;strokeWidth=1;fontFamily=Verdana;fontSize=12;entryX=0;entryY=0.5;entryDx=0;entryDy=0;entryPerimeter=0;" parent="1" source="VuVPS5KJBOoQBnHny8Ev-5" target="1cb643a89b7d889d-5" edge="1">
          <mxGeometry relative="1" as="geometry">
            <Array as="points">
              <mxPoint x="122" y="170" />
            </Array>
            <mxPoint x="172" y="310" as="sourcePoint" />
            <mxPoint x="132" y="244" as="targetPoint" />
          </mxGeometry>
        </mxCell>
        <mxCell id="psXuE5Bi8fvCq3IU7CZu-64" value="" style="group" vertex="1" connectable="0" parent="1">
          <mxGeometry x="860" y="68.75" width="150.6400000000001" height="122.5" as="geometry" />
        </mxCell>
        <mxCell id="psXuE5Bi8fvCq3IU7CZu-2" value="" style="rounded=1;whiteSpace=wrap;html=1;rotation=90;" vertex="1" parent="psXuE5Bi8fvCq3IU7CZu-64">
          <mxGeometry x="14.700000000000045" y="-13.439999999999998" width="122.5" height="149.38" as="geometry" />
        </mxCell>
        <mxCell id="psXuE5Bi8fvCq3IU7CZu-13" value="" style="group" vertex="1" connectable="0" parent="psXuE5Bi8fvCq3IU7CZu-64">
          <mxGeometry y="31.25" width="80" height="40" as="geometry" />
        </mxCell>
        <mxCell id="psXuE5Bi8fvCq3IU7CZu-3" value="" style="rounded=0;whiteSpace=wrap;html=1;" vertex="1" parent="psXuE5Bi8fvCq3IU7CZu-13">
          <mxGeometry x="10" width="60" height="35.55555555555555" as="geometry" />
        </mxCell>
        <mxCell id="VuVPS5KJBOoQBnHny8Ev-8" value="1" style="shape=waypoint;sketch=0;fillStyle=solid;size=6;pointerEvents=1;points=[];fillColor=none;resizable=0;rotatable=0;perimeter=centerPerimeter;snapToPoint=1;verticalAlign=top;spacingBottom=0;spacingTop=-5;fontFamily=Verdana;fontSize=12;" parent="psXuE5Bi8fvCq3IU7CZu-13" vertex="1">
          <mxGeometry y="4.444444444444444" width="40" height="40" as="geometry" />
        </mxCell>
        <mxCell id="psXuE5Bi8fvCq3IU7CZu-11" value="3&#xa;" style="shape=waypoint;sketch=0;fillStyle=solid;size=6;pointerEvents=1;points=[];fillColor=none;resizable=0;rotatable=0;perimeter=centerPerimeter;snapToPoint=1;verticalAlign=top;spacingBottom=0;spacingTop=-5;fontFamily=Verdana;fontSize=12;" vertex="1" parent="psXuE5Bi8fvCq3IU7CZu-13">
          <mxGeometry x="40" y="4.444444444444444" width="40" height="40" as="geometry" />
        </mxCell>
        <mxCell id="psXuE5Bi8fvCq3IU7CZu-10" value="2&#xa;" style="shape=waypoint;sketch=0;fillStyle=solid;size=6;pointerEvents=1;points=[];fillColor=none;resizable=0;rotatable=0;perimeter=centerPerimeter;snapToPoint=1;verticalAlign=top;spacingBottom=0;spacingTop=-5;fontFamily=Verdana;fontSize=12;" vertex="1" parent="psXuE5Bi8fvCq3IU7CZu-13">
          <mxGeometry x="20" y="4.444444444444444" width="40" height="40" as="geometry" />
        </mxCell>
        <mxCell id="psXuE5Bi8fvCq3IU7CZu-14" value="" style="group" vertex="1" connectable="0" parent="psXuE5Bi8fvCq3IU7CZu-64">
          <mxGeometry x="70" y="31.25" width="80" height="40" as="geometry" />
        </mxCell>
        <mxCell id="psXuE5Bi8fvCq3IU7CZu-15" value="" style="rounded=0;whiteSpace=wrap;html=1;" vertex="1" parent="psXuE5Bi8fvCq3IU7CZu-14">
          <mxGeometry x="10" width="60" height="35.55555555555555" as="geometry" />
        </mxCell>
        <mxCell id="psXuE5Bi8fvCq3IU7CZu-16" value="1" style="shape=waypoint;sketch=0;fillStyle=solid;size=6;pointerEvents=1;points=[];fillColor=none;resizable=0;rotatable=0;perimeter=centerPerimeter;snapToPoint=1;verticalAlign=top;spacingBottom=0;spacingTop=-5;fontFamily=Verdana;fontSize=12;" vertex="1" parent="psXuE5Bi8fvCq3IU7CZu-14">
          <mxGeometry y="4.444444444444444" width="40" height="40" as="geometry" />
        </mxCell>
        <mxCell id="psXuE5Bi8fvCq3IU7CZu-17" value="3&#xa;" style="shape=waypoint;sketch=0;fillStyle=solid;size=6;pointerEvents=1;points=[];fillColor=none;resizable=0;rotatable=0;perimeter=centerPerimeter;snapToPoint=1;verticalAlign=top;spacingBottom=0;spacingTop=-5;fontFamily=Verdana;fontSize=12;" vertex="1" parent="psXuE5Bi8fvCq3IU7CZu-14">
          <mxGeometry x="40" y="4.444444444444444" width="40" height="40" as="geometry" />
        </mxCell>
        <mxCell id="psXuE5Bi8fvCq3IU7CZu-18" value="2&#xa;" style="shape=waypoint;sketch=0;fillStyle=solid;size=6;pointerEvents=1;points=[];fillColor=none;resizable=0;rotatable=0;perimeter=centerPerimeter;snapToPoint=1;verticalAlign=top;spacingBottom=0;spacingTop=-5;fontFamily=Verdana;fontSize=12;" vertex="1" parent="psXuE5Bi8fvCq3IU7CZu-14">
          <mxGeometry x="20" y="4.444444444444444" width="40" height="40" as="geometry" />
        </mxCell>
        <mxCell id="psXuE5Bi8fvCq3IU7CZu-49" value="AX-12A" style="text;html=1;strokeColor=none;fillColor=none;align=center;verticalAlign=middle;whiteSpace=wrap;rounded=0;" vertex="1" parent="psXuE5Bi8fvCq3IU7CZu-64">
          <mxGeometry x="45.950000000000045" y="1.25" width="60" height="30" as="geometry" />
        </mxCell>
        <mxCell id="psXuE5Bi8fvCq3IU7CZu-62" value="ID: " style="text;html=1;strokeColor=none;fillColor=none;align=center;verticalAlign=middle;whiteSpace=wrap;rounded=0;" vertex="1" parent="psXuE5Bi8fvCq3IU7CZu-64">
          <mxGeometry x="45.950000000000045" y="81.25" width="60" height="30" as="geometry" />
        </mxCell>
        <mxCell id="psXuE5Bi8fvCq3IU7CZu-65" value="" style="group" vertex="1" connectable="0" parent="1">
          <mxGeometry x="860" y="290" width="150.6400000000001" height="122.5" as="geometry" />
        </mxCell>
        <mxCell id="psXuE5Bi8fvCq3IU7CZu-66" value="" style="rounded=1;whiteSpace=wrap;html=1;rotation=90;" vertex="1" parent="psXuE5Bi8fvCq3IU7CZu-65">
          <mxGeometry x="14.700000000000045" y="-13.439999999999998" width="122.5" height="149.38" as="geometry" />
        </mxCell>
        <mxCell id="psXuE5Bi8fvCq3IU7CZu-67" value="" style="group" vertex="1" connectable="0" parent="psXuE5Bi8fvCq3IU7CZu-65">
          <mxGeometry y="31.25" width="80" height="40" as="geometry" />
        </mxCell>
        <mxCell id="psXuE5Bi8fvCq3IU7CZu-68" value="" style="rounded=0;whiteSpace=wrap;html=1;" vertex="1" parent="psXuE5Bi8fvCq3IU7CZu-67">
          <mxGeometry x="10" width="60" height="35.55555555555555" as="geometry" />
        </mxCell>
        <mxCell id="psXuE5Bi8fvCq3IU7CZu-69" value="1" style="shape=waypoint;sketch=0;fillStyle=solid;size=6;pointerEvents=1;points=[];fillColor=none;resizable=0;rotatable=0;perimeter=centerPerimeter;snapToPoint=1;verticalAlign=top;spacingBottom=0;spacingTop=-5;fontFamily=Verdana;fontSize=12;" vertex="1" parent="psXuE5Bi8fvCq3IU7CZu-67">
          <mxGeometry y="4.444444444444444" width="40" height="40" as="geometry" />
        </mxCell>
        <mxCell id="psXuE5Bi8fvCq3IU7CZu-70" value="3&#xa;" style="shape=waypoint;sketch=0;fillStyle=solid;size=6;pointerEvents=1;points=[];fillColor=none;resizable=0;rotatable=0;perimeter=centerPerimeter;snapToPoint=1;verticalAlign=top;spacingBottom=0;spacingTop=-5;fontFamily=Verdana;fontSize=12;" vertex="1" parent="psXuE5Bi8fvCq3IU7CZu-67">
          <mxGeometry x="40" y="4.444444444444444" width="40" height="40" as="geometry" />
        </mxCell>
        <mxCell id="psXuE5Bi8fvCq3IU7CZu-71" value="2&#xa;" style="shape=waypoint;sketch=0;fillStyle=solid;size=6;pointerEvents=1;points=[];fillColor=none;resizable=0;rotatable=0;perimeter=centerPerimeter;snapToPoint=1;verticalAlign=top;spacingBottom=0;spacingTop=-5;fontFamily=Verdana;fontSize=12;" vertex="1" parent="psXuE5Bi8fvCq3IU7CZu-67">
          <mxGeometry x="20" y="4.444444444444444" width="40" height="40" as="geometry" />
        </mxCell>
        <mxCell id="psXuE5Bi8fvCq3IU7CZu-72" value="" style="group" vertex="1" connectable="0" parent="psXuE5Bi8fvCq3IU7CZu-65">
          <mxGeometry x="70" y="31.25" width="80" height="40" as="geometry" />
        </mxCell>
        <mxCell id="psXuE5Bi8fvCq3IU7CZu-73" value="" style="rounded=0;whiteSpace=wrap;html=1;" vertex="1" parent="psXuE5Bi8fvCq3IU7CZu-72">
          <mxGeometry x="10" width="60" height="35.55555555555555" as="geometry" />
        </mxCell>
        <mxCell id="psXuE5Bi8fvCq3IU7CZu-74" value="1" style="shape=waypoint;sketch=0;fillStyle=solid;size=6;pointerEvents=1;points=[];fillColor=none;resizable=0;rotatable=0;perimeter=centerPerimeter;snapToPoint=1;verticalAlign=top;spacingBottom=0;spacingTop=-5;fontFamily=Verdana;fontSize=12;" vertex="1" parent="psXuE5Bi8fvCq3IU7CZu-72">
          <mxGeometry y="4.444444444444444" width="40" height="40" as="geometry" />
        </mxCell>
        <mxCell id="psXuE5Bi8fvCq3IU7CZu-75" value="3&#xa;" style="shape=waypoint;sketch=0;fillStyle=solid;size=6;pointerEvents=1;points=[];fillColor=none;resizable=0;rotatable=0;perimeter=centerPerimeter;snapToPoint=1;verticalAlign=top;spacingBottom=0;spacingTop=-5;fontFamily=Verdana;fontSize=12;" vertex="1" parent="psXuE5Bi8fvCq3IU7CZu-72">
          <mxGeometry x="40" y="4.444444444444444" width="40" height="40" as="geometry" />
        </mxCell>
        <mxCell id="psXuE5Bi8fvCq3IU7CZu-76" value="2&#xa;" style="shape=waypoint;sketch=0;fillStyle=solid;size=6;pointerEvents=1;points=[];fillColor=none;resizable=0;rotatable=0;perimeter=centerPerimeter;snapToPoint=1;verticalAlign=top;spacingBottom=0;spacingTop=-5;fontFamily=Verdana;fontSize=12;" vertex="1" parent="psXuE5Bi8fvCq3IU7CZu-72">
          <mxGeometry x="20" y="4.444444444444444" width="40" height="40" as="geometry" />
        </mxCell>
        <mxCell id="psXuE5Bi8fvCq3IU7CZu-77" value="AX-12A" style="text;html=1;strokeColor=none;fillColor=none;align=center;verticalAlign=middle;whiteSpace=wrap;rounded=0;" vertex="1" parent="psXuE5Bi8fvCq3IU7CZu-65">
          <mxGeometry x="45.950000000000045" y="1.25" width="60" height="30" as="geometry" />
        </mxCell>
        <mxCell id="psXuE5Bi8fvCq3IU7CZu-78" value="ID: " style="text;html=1;strokeColor=none;fillColor=none;align=center;verticalAlign=middle;whiteSpace=wrap;rounded=0;" vertex="1" parent="psXuE5Bi8fvCq3IU7CZu-65">
          <mxGeometry x="45.950000000000045" y="81.25" width="60" height="30" as="geometry" />
        </mxCell>
        <mxCell id="psXuE5Bi8fvCq3IU7CZu-82" value="" style="endArrow=none;html=1;rounded=0;exitX=0.575;exitY=0.683;exitDx=0;exitDy=0;exitPerimeter=0;" edge="1" parent="1" source="psXuE5Bi8fvCq3IU7CZu-74" target="psXuE5Bi8fvCq3IU7CZu-16">
          <mxGeometry width="50" height="50" relative="1" as="geometry">
            <mxPoint x="670" y="440" as="sourcePoint" />
            <mxPoint x="720" y="390" as="targetPoint" />
            <Array as="points">
              <mxPoint x="950" y="370" />
              <mxPoint x="1000" y="370" />
              <mxPoint x="1040" y="370" />
              <mxPoint x="1040" y="260" />
              <mxPoint x="1040" y="150" />
              <mxPoint x="950" y="150" />
            </Array>
          </mxGeometry>
        </mxCell>
        <mxCell id="psXuE5Bi8fvCq3IU7CZu-83" value="" style="endArrow=none;html=1;rounded=0;exitX=0.6;exitY=0.508;exitDx=0;exitDy=0;exitPerimeter=0;" edge="1" parent="1" source="psXuE5Bi8fvCq3IU7CZu-76" target="psXuE5Bi8fvCq3IU7CZu-18">
          <mxGeometry width="50" height="50" relative="1" as="geometry">
            <mxPoint x="670" y="440" as="sourcePoint" />
            <mxPoint x="720" y="390" as="targetPoint" />
            <Array as="points">
              <mxPoint x="970" y="380" />
              <mxPoint x="1060" y="380" />
              <mxPoint x="1060" y="140" />
              <mxPoint x="1020" y="140" />
              <mxPoint x="970" y="140" />
            </Array>
          </mxGeometry>
        </mxCell>
      </root>
    </mxGraphModel>
  </diagram>
</mxfile>
